<?xml version="1.0" encoding="UTF-8"?>
<svg width="46px" height="46px" viewBox="0 0 46 46" version="1.1" xmlns="http://www.w3.org/2000/svg" xmlns:xlink="http://www.w3.org/1999/xlink">
    <title>exclamation</title>
    <g id="Desktop-/-Inicio" stroke="none" stroke-width="1" fill="none" fill-rule="evenodd">
        <g id="exclamation" fill="#000000" fill-rule="nonzero">
            <g id="Group" transform="translate(23.000000, 23.000000) scale(-1, 1) rotate(-180.000000) translate(-23.000000, -23.000000) ">
                <path d="M23,0 C10.3178,0 0,10.3179394 0,23.0001394 C0,35.6823394 10.3178,46 23,46 C35.6822,46 46,35.6823394 46,23.0001394 C46,10.3179394 35.6822,0 23,0 Z M23,41.8181818 C12.6235152,41.8181818 4.18181818,33.3764848 4.18181818,23.0001394 C4.18181818,12.6237939 12.6235152,4.18181818 23,4.18181818 C33.3764848,4.18181818 41.8181818,12.6237939 41.8181818,23.0001394 C41.8181818,33.3764848 33.3763455,41.8181818 23,41.8181818 Z" id="Shape"></path>
                <path d="M23,10 C21.3457692,10 20,11.3464 20,13.00135 C20,14.6548 21.3457692,16 23,16 C24.6542308,16 26,14.6548 26,13.00135 C26,11.3464 24.6542308,10 23,10 Z" id="Path"></path>
                <path d="M23,19 C21.8954667,19 21,19.9514333 21,21.125 L21,33.875 C21,35.0485667 21.8954667,36 23,36 C24.1045333,36 25,35.0485667 25,33.875 L25,21.125 C25,19.9514333 24.1045333,19 23,19 Z" id="Path"></path>
            </g>
        </g>
    </g>
</svg>